<svg xmlns="http://www.w3.org/2000/svg" width="204.731" height="200.533" viewBox="0 0 204.731 200.533">
  <g id="Squid_logo" data-name="Squid logo" transform="translate(-359.707 -382.5)">
    <path id="Tracé_2" data-name="Tracé 2" d="M536.281,477.172a.252.252,0,0,0-.063-.475c-14.663-2.3-27.7,8.228-28.72,21.075-.982,12.438,9.517,24.392,21.473,24.694,12.445.315,24.516-12.041,23.17-27.6a.25.25,0,0,0-.47-.089,12.243,12.243,0,0,1-13.037,6.216c-5.832-1.164-9.458-6.507-9.663-11.81A12.927,12.927,0,0,1,536.281,477.172Z" transform="translate(-67.553 -42.93)" fill="#417ae9"/>
    <path id="Tracé_3" data-name="Tracé 3" d="M564.329,543.214c-1.408-16.628-16.57-33.594-33.968-32.046-15.015,1.336-29.567,16.271-27.136,29.806,2.356,13.114,20.232,22.554,26.05,19,2.566-1.57,3.686-6.216,2.171-8.684-2.05-3.338-7.81-.872-11.94-4.885-3.223-3.132-3.044-7.869-3.016-8.406.387-7.367,8.819-13.833,16.583-13.845,9.779-.016,17.337,10.208,18.208,19.064,1.086,11.051-7.954,22.886-22.338,26.226-10.069,2.338-18.728-1.71-21.921-3.5-14.866-8.341-22.357-28.673-19.89-51.558,6.449-2.906,31.806-15.215,40.875-42.817a61.964,61.964,0,0,0,3.085-20.41,68.654,68.654,0,1,0-137.308,0,70.5,70.5,0,0,0,3.079,20.389c8.608,26.946,31.88,39.892,38.711,43.381,3.1,22.5-3.988,42.729-18.452,51.016-2.233,1.279-11.242,5.98-21.921,3.5-14.384-3.339-23.425-15.175-22.338-26.226.871-8.856,8.428-19.08,18.208-19.064,7.765.012,16.2,6.478,16.584,13.845.028.537.207,5.274-3.016,8.406-4.13,4.013-9.891,1.546-11.94,4.885-1.515,2.467-.395,7.114,2.171,8.684,5.818,3.558,23.7-5.881,26.051-19,2.431-13.535-12.121-28.47-27.136-29.806-17.4-1.548-32.56,15.418-33.968,32.046-1.725,20.361,17,36.391,33.968,39.148,13.89,2.257,25.044-4.628,28.221-6.654,29.878-19.051,25.045-66.308,24.811-68.331a58.351,58.351,0,1,1,31.383-.043c-3.866,32.258,6.307,60.577,26.3,71.088a40.79,40.79,0,0,0,25.859,3.94C546.967,579.157,566.052,563.561,564.329,543.214Z" transform="translate(0 0)" fill="#417ae9"/>
    <path id="Tracé_4" data-name="Tracé 4" d="M537,615.508a13.38,13.38,0,0,0,5.97,1.016A13.237,13.237,0,0,0,548.4,615v64.717a5.7,5.7,0,1,1-11.4,0Z" transform="translate(-81.073 -106.318)" fill="#417ae9"/>
  </g>
</svg>
